<svg width="160" height="160" viewBox="0 0 160 160" xmlns="http://www.w3.org/2000/svg">
  <defs>
    <linearGradient id="gradAI2" x1="0" y1="0" x2="1" y2="1">
      <stop offset="0%" stop-color="#5eead4" />
      <stop offset="100%" stop-color="#0f766e" />
    </linearGradient>
  </defs>
  <circle cx="80" cy="80" r="76" fill="url(#gradAI2)" stroke="#0f172a" stroke-width="8" />
  <path d="M52 115c5-16 17-26 28-26s23 10 28 26c-9 12-23 19-28 19s-19-7-28-19z" fill="#ecfeff" opacity="0.9" />
  <path d="M57 70c0-10 8-18 18-18s18 8 18 18-8 18-18 18-18-8-18-18zm30 0c0-10 8-18 18-18s18 8 18 18-8 18-18 18-18-8-18-18z" fill="#ecfeff" opacity="0.8" />
  <text x="80" y="98" font-size="48" text-anchor="middle" fill="#0f172a" font-family="'Segoe UI', sans-serif" font-weight="700">A₂</text>
</svg>
